# Blender v2.76 (sub 0) OBJ File: 'chicken.blend'
# www.blender.org
mtllib chicken.mtl
o Chicken_Cube
v 1.000000 -1.000000 -1.000000
v 1.000000 -1.000000 1.000000
v 1.000000 1.000000 -0.999999
v 1.191693 1.000000 1.000001
v 0.475992 1.361229 -1.802565
v 0.475992 0.330639 -1.764501
v 1.000000 -0.611633 2.016451
v 1.472768 0.954484 0.321929
v 0.999999 1.000000 2.521695
v 1.387853 1.000000 -0.999999
v 0.824019 2.325597 1.244624
v 1.400792 -0.359347 0.331279
v 0.889208 2.356828 2.392767
v 1.288395 -0.298319 -1.000000
v 0.422401 -1.800000 -0.752133
v 0.422401 -1.800000 -0.323552
v 0.172131 2.830775 1.695759
v 0.422401 -2.260000 -0.050000
v 0.422401 -2.260000 0.048414
v 0.537296 -1.800000 -0.323552
v 0.537296 -1.800000 -0.752133
v 0.422401 -2.372374 0.048414
v 0.422401 -2.372374 -0.050000
v 0.502942 -2.260000 -0.050000
v 0.502942 -2.260000 0.048414
v 0.502942 -2.372374 0.048414
v 0.502942 -2.372374 -0.050000
v 0.422401 -2.260000 0.371005
v 0.502942 -2.260000 0.371005
v 0.422401 -2.372374 0.371005
v 0.502942 -2.372374 0.371005
v 0.279267 -2.260000 0.145450
v 0.279267 -2.260000 0.243864
v 0.279267 -2.372374 0.145450
v 0.279267 -2.372374 0.243864
v 0.654953 -2.260000 0.139401
v 0.654953 -2.260000 0.237814
v 0.654953 -2.372370 0.139401
v 0.654953 -2.372370 0.237814
v 0.422401 -2.260000 -0.289207
v 0.502942 -2.260000 -0.289207
v 0.422401 -2.372374 -0.289207
v 0.502942 -2.372374 -0.289207
v 0.148894 2.479182 1.319565
v 1.000000 -0.500000 -1.000000
v 1.000000 0.000000 -1.000000
v 1.000000 0.500000 -1.000000
v 1.047923 -0.500000 1.000000
v 1.095846 0.000000 1.000000
v 1.143770 0.500000 1.000000
v 0.999999 -0.208725 2.142762
v 0.999999 0.194184 2.269073
v 0.999999 0.597092 2.395384
v 1.418786 -0.030889 0.328942
v 1.436780 0.297569 0.326604
v 1.454774 0.626026 0.324267
v 1.313259 0.026261 -0.999999
v 1.338124 0.350841 -0.999999
v 1.362989 0.675420 -0.999999
v 0.475992 0.588287 -1.774017
v 0.475992 0.845934 -1.783533
v 0.475992 1.103582 -1.793049
v 1.000000 -0.805816 1.508226
v 1.095846 1.000000 1.760848
v 0.856613 2.341212 1.818695
v 0.160513 2.654979 1.507662
v 1.023961 -0.354362 1.571381
v 1.047923 0.097092 1.634537
v 1.071884 0.548546 1.697692
v -1.000000 -1.000000 -1.000000
v -1.000000 -1.000000 1.000000
v 0.000000 1.361229 -1.448170
v 0.000000 0.330639 -2.039462
v -1.000000 1.000000 -0.999999
v -1.191693 1.000000 1.000001
v -0.475992 1.361229 -1.802565
v -0.475992 0.330639 -1.764501
v -1.000000 -0.611633 2.016451
v -1.472768 0.954484 0.321929
v -0.999999 1.000000 2.521695
v -1.387853 1.000000 -0.999999
v -0.824019 2.325597 1.244624
v -1.400792 -0.359347 0.331279
v -0.889208 2.356828 2.392767
v -1.288395 -0.298319 -1.000000
v 0.000000 1.000000 -1.000000
v 0.000000 1.000000 1.000000
v 0.000000 -0.611633 2.016451
v 0.000000 1.000000 2.614485
v 0.000000 2.727969 1.014883
v 0.000000 2.447678 2.539159
v -0.422401 -1.800000 -0.752133
v -0.422401 -1.800000 -0.323552
v 0.000000 -1.000000 -1.000000
v 0.000000 -1.000000 1.000000
v 0.000000 1.628252 3.459830
v -0.172131 2.830775 1.695759
v 0.000000 2.701053 1.314503
v 0.000000 2.766947 2.356858
v -0.422401 -2.260000 -0.050000
v -0.422401 -2.260000 0.048414
v -0.537296 -1.800000 -0.323552
v -0.537296 -1.800000 -0.752133
v -0.422401 -2.372374 0.048414
v -0.422401 -2.372374 -0.050000
v -0.502942 -2.260000 -0.050000
v -0.502942 -2.260000 0.048414
v -0.502942 -2.372374 0.048414
v -0.502942 -2.372374 -0.050000
v -0.422401 -2.260000 0.371005
v -0.502942 -2.260000 0.371005
v -0.422401 -2.372374 0.371005
v -0.502942 -2.372374 0.371005
v -0.279267 -2.260000 0.145450
v -0.279267 -2.260000 0.243864
v -0.279267 -2.372374 0.145450
v -0.279267 -2.372374 0.243864
v -0.654953 -2.260000 0.139401
v -0.654953 -2.260000 0.237814
v -0.654953 -2.372370 0.139401
v -0.654953 -2.372370 0.237814
v -0.422401 -2.260000 -0.289207
v -0.502942 -2.260000 -0.289207
v -0.422401 -2.372374 -0.289207
v -0.502942 -2.372374 -0.289207
v 0.000000 3.269090 1.396628
v 0.000000 3.329007 2.274384
v 0.000000 0.570993 -2.775421
v 0.000000 1.651290 -3.097959
v 0.000000 2.501080 -2.452838
v 0.000000 1.768761 -2.363628
v 0.000000 0.905135 -2.615324
v 0.000000 2.334924 1.012635
v 0.000000 2.940129 1.731692
v -0.148894 2.479182 1.319565
v -1.000000 -0.500000 -1.000000
v -1.000000 0.000000 -1.000000
v -1.000000 0.500000 -1.000000
v -1.047923 -0.500000 1.000000
v -1.095846 0.000000 1.000000
v -1.143770 0.500000 1.000000
v -0.999999 -0.208725 2.142762
v -0.999999 0.194184 2.269073
v -0.999999 0.597092 2.395384
v -1.418786 -0.030889 0.328942
v -1.436780 0.297569 0.326604
v -1.454774 0.626026 0.324267
v -1.313259 0.026261 -0.999999
v -1.338124 0.350841 -0.999999
v -1.362989 0.675420 -0.999999
v -0.475992 0.588287 -1.774017
v -0.475992 0.845934 -1.783533
v -0.475992 1.103582 -1.793049
v 0.000000 0.597092 2.464977
v 0.000000 0.194183 2.315468
v 0.000000 -0.208725 2.165960
v -1.000000 -0.805816 1.508226
v -1.095846 1.000000 1.760848
v -0.856613 2.341212 1.818695
v 0.000000 -0.805816 1.508226
v -0.160513 2.654979 1.507662
v -1.023961 -0.354362 1.571381
v -1.047923 0.097092 1.634537
v -1.071884 0.548546 1.697692
vt 0.628575 0.422935
vt 0.749344 0.351031
vt 0.749344 0.494999
vt 0.665935 0.494699
vt 0.924425 0.397341
vt 0.924425 0.467618
vt 0.869910 0.467618
vt 0.873405 0.421997
vt 0.793508 0.707088
vt 0.793508 0.847642
vt 0.717038 0.847642
vt 0.717038 0.707088
vt 0.999434 0.980815
vt 0.717038 0.980815
vt 0.808140 0.931975
vt 0.994355 0.926538
vt 0.763460 0.257110
vt 0.763423 0.186511
vt 0.868778 0.281466
vt 0.868236 0.327699
vt 0.116733 0.219258
vt 0.108339 0.282866
vt 0.000566 0.282900
vt 0.018160 0.226228
vt 0.739673 0.139643
vt 0.741016 0.185378
vt 0.554722 0.185378
vt 0.552968 0.139175
vt 0.325022 0.351798
vt 0.432804 0.351031
vt 0.393602 0.543463
vt 0.312755 0.543066
vt 0.433937 0.707088
vt 0.715044 0.707088
vt 0.715905 0.813714
vt 0.527928 0.813303
vt 0.815835 0.617856
vt 0.919784 0.544362
vt 0.919784 0.699904
vt 0.828823 0.667872
vt 0.141613 0.689125
vt 0.141664 0.748473
vt 0.000566 0.752574
vt 0.000753 0.692171
vt 0.337762 0.058233
vt 0.377929 0.000566
vt 0.377929 0.228491
vt 0.358126 0.258839
vt 0.406005 0.000566
vt 0.546559 0.000566
vt 0.546559 0.281674
vt 0.379062 0.281674
vt 0.627442 0.351031
vt 0.627442 0.543229
vt 0.433937 0.437605
vt 0.801922 0.529144
vt 0.790351 0.521563
vt 0.869515 0.496132
vt 0.919903 0.529144
vt 0.700432 0.330140
vt 0.760671 0.330161
vt 0.760665 0.346310
vt 0.700426 0.346289
vt 0.581313 0.330140
vt 0.699294 0.330140
vt 0.699294 0.346289
vt 0.581313 0.341461
vt 0.045876 0.918823
vt 0.046301 0.907511
vt 0.129571 0.905808
vt 0.128965 0.921946
vt 0.432804 0.674492
vt 0.151697 0.674492
vt 0.337727 0.544596
vt 0.397966 0.544596
vt 0.547692 0.341461
vt 0.547692 0.330140
vt 0.544624 0.814846
vt 0.645926 0.913148
vt 0.433937 0.913148
vt 0.372153 0.803911
vt 0.293232 0.903802
vt 0.151697 0.803911
vt 0.151697 0.675624
vt 0.432804 0.675624
vt 0.397966 0.802779
vt 0.337727 0.802779
vt 0.079861 0.871600
vt 0.130207 0.904675
vt 0.012127 0.904675
vt 0.000566 0.897080
vt 0.424404 0.335092
vt 0.438236 0.335092
vt 0.438236 0.346413
vt 0.424404 0.346413
vt 0.695351 0.690840
vt 0.706510 0.699012
vt 0.672460 0.699012
vt 0.661301 0.690840
vt 0.187719 0.527888
vt 0.176931 0.536546
vt 0.142797 0.536546
vt 0.153584 0.527888
vt 0.559887 0.914281
vt 0.559887 0.930075
vt 0.514546 0.930075
vt 0.514546 0.914281
vt 0.761797 0.366826
vt 0.750477 0.366826
vt 0.750477 0.351031
vt 0.761797 0.351031
vt 0.000566 0.917120
vt 0.000991 0.905808
vt 0.479279 0.914281
vt 0.479279 0.930075
vt 0.433937 0.930075
vt 0.433937 0.914281
vt 0.379062 0.346413
vt 0.379062 0.335092
vt 0.875458 0.488608
vt 0.861625 0.488608
vt 0.861625 0.472813
vt 0.875458 0.472813
vt 0.593937 0.914281
vt 0.593937 0.930075
vt 0.752853 0.690840
vt 0.741693 0.699012
vt 0.707643 0.699012
vt 0.718803 0.690840
vt 0.407336 0.849755
vt 0.407336 0.865549
vt 0.373286 0.865549
vt 0.373286 0.849755
vt 0.422301 0.865553
vt 0.408468 0.865549
vt 0.408474 0.849755
vt 0.422306 0.849759
vt 0.176931 0.510961
vt 0.176931 0.526756
vt 0.142797 0.526756
vt 0.142797 0.510962
vt 0.507125 0.335104
vt 0.517909 0.343766
vt 0.483775 0.343754
vt 0.472990 0.335092
vt 0.513413 0.914281
vt 0.513413 0.930075
vt 0.761797 0.383753
vt 0.750477 0.383753
vt 0.750477 0.367958
vt 0.761797 0.367958
vt 0.210553 0.510961
vt 0.210553 0.526756
vt 0.373286 0.882477
vt 0.373286 0.866682
vt 0.406907 0.866682
vt 0.406907 0.882477
vt 0.471857 0.335092
vt 0.471857 0.346413
vt 0.628575 0.542174
vt 0.690620 0.496132
vt 0.789219 0.542174
vt 0.717038 0.925406
vt 0.749974 0.848774
vt 0.930597 0.925405
vt 0.783865 0.073620
vt 0.852165 0.141701
vt 0.742149 0.141701
vt 0.894853 0.785500
vt 0.871110 0.723921
vt 0.894853 0.707088
vt 0.750477 0.472813
vt 0.860493 0.472813
vt 0.841655 0.494999
vt 0.660168 0.544362
vt 0.616092 0.705955
vt 0.433937 0.660930
vt 0.463783 0.544362
vt 0.373286 0.848622
vt 0.405735 0.803911
vt 0.432401 0.848622
vt 0.773762 0.184196
vt 0.742149 0.142834
vt 0.862477 0.142834
vt 0.217240 0.231218
vt 0.257417 0.173559
vt 0.318530 0.319543
vt 0.298738 0.349898
vt 0.297591 0.115897
vt 0.338327 0.289190
vt 0.141664 0.511081
vt 0.141613 0.570429
vt 0.001025 0.571364
vt 0.001110 0.510961
vt 0.141597 0.629777
vt 0.000906 0.631768
vt 0.735660 0.002438
vt 0.736995 0.048173
vt 0.549453 0.046769
vt 0.547692 0.000566
vt 0.738333 0.093908
vt 0.551212 0.092972
vt 0.141957 0.028397
vt 0.133540 0.092010
vt 0.053251 0.112861
vt 0.070712 0.056151
vt 0.125133 0.155636
vt 0.035728 0.169551
vt 0.763423 0.468907
vt 0.763461 0.398308
vt 0.867227 0.420166
vt 0.866760 0.466400
vt 0.763473 0.327709
vt 0.867719 0.373932
vt 0.924425 0.186511
vt 0.924425 0.256788
vt 0.880395 0.330756
vt 0.883890 0.285135
vt 0.924425 0.327065
vt 0.876900 0.376377
vt 0.940910 0.544362
vt 0.972608 0.680904
vt 0.920916 0.770791
vt 0.920916 0.574585
vt 0.893063 0.072487
vt 0.758611 0.032849
vt 0.742149 0.000566
vt 0.968911 0.000566
vt 0.398399 0.968327
vt 0.171638 0.968326
vt 0.151697 0.938068
vt 0.290780 0.904935
vt 0.529938 0.333960
vt 0.387861 0.317960
vt 0.379062 0.282806
vt 0.539706 0.282806
vt 0.737292 0.571959
vt 0.814702 0.595284
vt 0.788904 0.689707
vt 0.752797 0.686799
vt 0.661301 0.544362
vt 0.716690 0.689707
vt 0.214543 0.141738
vt 0.215306 0.212319
vt 0.213831 0.071155
vt 0.213173 0.000566
vt 0.217240 0.351031
vt 0.231908 0.542668
vt 0.216107 0.282900
vt 0.709156 0.894938
vt 0.647059 0.847059
vt 0.663626 0.814846
vt 0.699515 0.814846
vt 0.861758 0.106365
vt 0.888508 0.073620
vt 0.888508 0.132735
vt 0.853298 0.141242
vt 0.000566 0.323178
vt 0.135559 0.284033
vt 0.208639 0.509828
vt 0.131376 0.509828
vt 0.003122 0.753707
vt 0.142535 0.753707
vt 0.078028 0.870467
vt 0.062010 0.870467
vt 0.548747 0.186511
vt 0.762290 0.248860
vt 0.762290 0.264803
vt 0.547692 0.329008
vt 0.869977 0.707088
vt 0.869977 0.847642
vn 0.110900 0.880000 0.461900
vn 0.000000 0.000000 -1.000000
vn 0.000000 -0.934100 0.356900
vn 0.075300 0.997100 0.007400
vn 0.888200 -0.069400 0.454100
vn 0.991800 -0.053500 0.115800
vn 0.995500 -0.065600 -0.068800
vn 0.975200 0.217000 0.043700
vn 0.881100 -0.471500 -0.038400
vn 0.360000 0.819600 0.445800
vn 0.076600 -0.322900 0.943300
vn 0.821200 -0.007200 -0.570600
vn 0.000000 1.000000 0.000000
vn 0.719200 0.123700 0.683700
vn -1.000000 0.000000 0.000000
vn 0.000000 -1.000000 0.000000
vn 0.000000 -0.836500 -0.548000
vn 0.000000 0.628800 0.777600
vn 0.865600 -0.500700 0.000000
vn 0.055300 -0.801400 0.595600
vn 0.182600 0.734400 0.653700
vn -0.884300 -0.466900 0.000000
vn -0.997200 0.074500 0.000000
vn 0.000000 0.000000 1.000000
vn 1.000000 0.000000 0.000000
vn 0.806800 0.000000 0.590800
vn -0.806800 0.000000 -0.590800
vn 0.779900 0.000000 -0.625900
vn -0.779900 0.000000 0.625900
vn 0.176500 -0.935700 -0.305600
vn 0.487600 0.577300 0.655000
vn 0.966200 0.037400 0.255200
vn 0.514200 0.612000 0.600900
vn 0.367200 0.756100 -0.541800
vn 0.114100 0.111200 -0.987200
vn -0.899300 -0.002500 0.437400
vn -0.144200 -0.866800 0.477400
vn 0.833900 -0.006900 -0.551900
vn 0.829800 -0.007000 -0.558000
vn 0.825600 -0.007100 -0.564300
vn 0.011000 -0.323800 0.946100
vn 0.032900 -0.323700 0.945600
vn 0.054800 -0.323400 0.944700
vn 0.994300 -0.065600 -0.084400
vn 0.994700 -0.065600 -0.079200
vn 0.995100 -0.065600 -0.074000
vn 0.998800 -0.035400 0.033300
vn 0.996800 -0.043100 0.068100
vn 0.994300 -0.048900 0.094800
vn 0.915400 -0.071700 0.396100
vn 0.906700 -0.071000 0.415800
vn 0.897600 -0.070200 0.435200
vn 0.736200 -0.067200 -0.673400
vn 0.915900 0.356500 -0.184500
vn 0.834500 -0.242600 -0.494800
vn 0.897100 0.109000 -0.428300
vn 0.350500 0.903400 -0.247200
vn 0.593200 0.772000 -0.228300
vn 0.991800 -0.081400 0.098100
vn 0.993900 -0.080100 0.075400
vn 0.995800 -0.078300 0.046800
vn 0.990500 0.129700 0.045400
vn 0.989700 -0.082500 0.116600
vn 0.881200 0.149200 -0.448600
vn -0.817900 -0.544600 0.185700
vn 0.154900 -0.533200 -0.831700
vn 0.000000 -0.296000 -0.955200
vn -0.000000 -0.855800 0.517300
vn -0.110900 0.880000 0.461900
vn -0.075300 0.997100 0.007400
vn -0.888200 -0.069400 0.454100
vn -0.991800 -0.053500 0.115800
vn -0.995500 -0.065600 -0.068800
vn -0.975200 0.217000 0.043700
vn -0.881100 -0.471500 -0.038400
vn -0.360000 0.819600 0.445800
vn -0.076600 -0.322900 0.943300
vn -0.821200 -0.007200 -0.570600
vn -0.719200 0.123700 0.683700
vn -0.865600 -0.500700 0.000000
vn -0.055300 -0.801400 0.595600
vn -0.182600 0.734400 0.653700
vn 0.884300 -0.466900 0.000000
vn 0.997200 0.074500 0.000000
vn -0.806800 0.000000 0.590800
vn 0.806800 0.000000 -0.590800
vn -0.779900 0.000000 -0.625900
vn 0.779900 0.000000 0.625900
vn -0.176500 -0.935700 -0.305600
vn -0.487600 0.577300 0.655000
vn -0.966200 0.037400 0.255200
vn -0.514200 0.612000 0.600900
vn -0.367200 0.756100 -0.541800
vn -0.114100 0.111200 -0.987200
vn 0.899300 -0.002500 0.437400
vn 0.144200 -0.866800 0.477400
vn -0.833900 -0.006900 -0.551900
vn -0.829800 -0.007000 -0.558000
vn -0.825600 -0.007100 -0.564300
vn -0.011000 -0.323800 0.946100
vn -0.032900 -0.323700 0.945600
vn -0.054800 -0.323400 0.944700
vn -0.994300 -0.065600 -0.084400
vn -0.994700 -0.065600 -0.079200
vn -0.995100 -0.065600 -0.074000
vn -0.998800 -0.035400 0.033300
vn -0.996800 -0.043100 0.068100
vn -0.994300 -0.048900 0.094800
vn -0.915400 -0.071700 0.396100
vn -0.906700 -0.071000 0.415800
vn -0.897600 -0.070200 0.435200
vn -0.736200 -0.067200 -0.673400
vn -0.915900 0.356500 -0.184500
vn -0.834500 -0.242600 -0.494800
vn -0.897100 0.109000 -0.428300
vn -0.350500 0.903400 -0.247200
vn -0.593200 0.772000 -0.228300
vn -0.991800 -0.081400 0.098100
vn -0.993900 -0.080100 0.075400
vn -0.995800 -0.078300 0.046800
vn -0.990500 0.129700 0.045400
vn -0.989700 -0.082500 0.116600
vn -0.881200 0.149200 -0.448600
vn 0.817900 -0.544600 0.185700
vn -0.154900 -0.533200 -0.831700
usemtl Material
s off
f 86/1/1 3/2/1 5/3/1 72/4/1
f 47/5/2 3/6/2 10/7/2 59/8/2
f 160/9/3 63/10/3 7/11/3 88/12/3
f 3/13/4 4/14/4 8/15/4 10/16/4
f 48/17/5 2/18/5 12/19/5 54/20/5
f 69/21/6 64/22/6 9/23/6 53/24/6
f 59/25/7 10/26/7 8/27/7 56/28/7
f 64/29/8 4/30/8 11/31/8 65/32/8
f 2/33/9 1/34/9 14/35/9 12/36/9
f 91/37/10 13/38/10 17/39/10 99/40/10
f 53/41/11 9/42/11 89/43/11 154/44/11
f 45/45/12 1/46/12 6/47/12 60/48/12
f 3/49/13 86/50/13 87/51/13 4/52/13
f 9/53/14 13/54/14 96/55/14
f 18/56/15 19/57/15 16/58/15 15/59/15
f 16/60/16 15/61/16 21/62/16 20/63/16
f 18/64/17 15/65/17 21/66/17 24/67/17
f 19/68/18 25/69/18 20/70/18 16/71/18
f 1/72/19 2/73/19 20/74/19 21/75/19
f 18/64/13 24/67/13 41/76/13 40/77/13
f 89/78/20 9/79/20 96/80/20
f 13/81/21 91/82/21 96/83/21
f 95/84/22 94/85/22 15/86/22 16/87/22
f 20/88/23 21/89/23 24/90/23 25/91/23
f 22/92/16 23/93/16 27/94/16 26/95/16
f 19/96/13 18/97/13 32/98/13 33/99/13
f 24/100/13 25/101/13 37/102/13 36/103/13
f 19/104/15 22/105/15 30/106/15 28/107/15
f 29/108/24 28/109/24 30/110/24 31/111/24
f 25/69/13 19/68/13 28/112/13 29/113/13
f 26/114/25 25/115/25 29/116/25 31/117/25
f 22/92/16 26/95/16 31/118/16 30/119/16
f 33/120/15 32/121/15 34/122/15 35/123/15
f 22/105/26 19/104/26 33/124/26 35/125/26
f 23/126/16 22/127/16 35/128/16 34/129/16
f 18/130/27 23/131/27 34/132/27 32/133/27
f 36/134/25 37/135/25 39/136/25 38/137/25
f 27/138/28 24/139/28 36/140/28 38/141/28
f 26/142/16 27/143/16 38/144/16 39/145/16
f 25/115/29 26/114/29 39/146/29 37/147/29
f 40/148/2 41/149/2 43/150/2 42/151/2
f 24/139/25 27/138/25 43/152/25 41/153/25
f 23/154/15 18/155/15 40/156/15 42/157/15
f 27/94/16 23/93/16 42/158/16 43/159/16
f 6/160/30 73/161/30 128/162/30
f 72/163/31 5/164/31 130/165/31
f 99/166/32 17/167/32 127/168/32
f 126/169/33 134/170/33 17/171/33
f 127/172/34 17/173/34 134/174/34
f 4/175/35 87/176/35 133/177/35 11/178/35
f 90/179/36 133/180/36 44/181/36
f 44/182/37 133/183/37 11/184/37
f 3/185/38 47/186/38 62/187/38 5/188/38
f 47/186/39 46/189/39 61/190/39 62/187/39
f 46/189/40 45/45/40 60/48/40 61/190/40
f 7/191/41 51/192/41 156/193/41 88/194/41
f 51/192/42 52/195/42 155/196/42 156/193/42
f 52/195/43 53/41/43 154/44/43 155/196/43
f 14/197/44 57/198/44 54/199/44 12/200/44
f 57/198/45 58/201/45 55/202/45 54/199/45
f 58/201/46 59/25/46 56/28/46 55/202/46
f 63/203/47 67/204/47 51/205/47 7/206/47
f 67/204/48 68/207/48 52/208/48 51/205/48
f 68/207/49 69/21/49 53/24/49 52/208/49
f 4/209/50 50/210/50 56/211/50 8/212/50
f 50/210/51 49/213/51 55/214/51 56/211/51
f 49/213/52 48/17/52 54/20/52 55/214/52
f 1/215/2 45/216/2 57/217/2 14/218/2
f 45/216/2 46/219/2 58/220/2 57/217/2
f 46/219/2 47/5/2 59/8/2 58/220/2
f 62/221/53 131/222/53 130/223/53 5/224/53
f 131/225/54 62/226/54 61/227/54 129/228/54
f 129/229/55 61/230/55 60/231/55 132/232/55
f 132/233/56 60/234/56 6/235/56 128/236/56
f 65/237/57 11/238/57 44/239/57 66/240/57
f 13/241/58 65/237/58 66/240/58 17/242/58
f 49/243/59 50/244/59 69/21/59 68/207/59
f 48/245/60 49/243/60 68/207/60 67/204/60
f 2/246/61 48/245/61 67/204/61 63/203/61
f 9/247/62 64/29/62 65/32/62 13/248/62
f 50/244/63 4/249/63 64/22/63 69/21/63
f 126/250/64 17/251/64 66/252/64 98/253/64
f 98/254/65 90/255/65 44/256/65 66/257/65
f 1/258/66 94/259/66 73/260/66 6/261/66
f 94/262/67 1/263/67 21/264/67 15/265/67
f 95/266/68 16/267/68 20/268/68 2/269/68
f 95/270/3 2/271/3 63/10/3 160/9/3
f 86/1/69 72/4/69 76/3/69 74/2/69
f 138/5/2 150/8/2 81/7/2 74/6/2
f 160/9/3 88/12/3 78/11/3 157/10/3
f 74/13/70 81/16/70 79/15/70 75/14/70
f 139/17/71 145/20/71 83/19/71 71/18/71
f 164/21/72 144/24/72 80/23/72 158/22/72
f 150/25/73 147/28/73 79/27/73 81/26/73
f 158/29/74 159/32/74 82/31/74 75/30/74
f 71/33/75 83/36/75 85/35/75 70/34/75
f 91/37/76 99/40/76 97/39/76 84/38/76
f 144/41/77 154/44/77 89/43/77 80/42/77
f 136/45/78 151/48/78 77/47/78 70/46/78
f 74/49/13 75/52/13 87/51/13 86/50/13
f 80/53/79 96/55/79 84/54/79
f 100/56/25 92/59/25 93/58/25 101/57/25
f 93/60/16 102/63/16 103/62/16 92/61/16
f 100/64/17 106/67/17 103/66/17 92/65/17
f 101/68/18 93/71/18 102/70/18 107/69/18
f 70/72/80 103/75/80 102/74/80 71/73/80
f 100/64/13 122/77/13 123/76/13 106/67/13
f 89/78/81 96/80/81 80/79/81
f 84/81/82 96/83/82 91/82/82
f 95/84/83 93/87/83 92/86/83 94/85/83
f 102/88/84 107/91/84 106/90/84 103/89/84
f 104/92/16 108/95/16 109/94/16 105/93/16
f 101/96/13 115/99/13 114/98/13 100/97/13
f 106/100/13 118/103/13 119/102/13 107/101/13
f 101/104/25 110/107/25 112/106/25 104/105/25
f 111/108/24 113/111/24 112/110/24 110/109/24
f 107/69/13 111/113/13 110/112/13 101/68/13
f 108/114/15 113/117/15 111/116/15 107/115/15
f 104/92/16 112/119/16 113/118/16 108/95/16
f 115/120/25 117/123/25 116/122/25 114/121/25
f 104/105/85 117/125/85 115/124/85 101/104/85
f 105/126/16 116/129/16 117/128/16 104/127/16
f 100/130/86 114/133/86 116/132/86 105/131/86
f 118/134/15 120/137/15 121/136/15 119/135/15
f 109/138/87 120/141/87 118/140/87 106/139/87
f 108/142/16 121/145/16 120/144/16 109/143/16
f 107/115/88 119/147/88 121/146/88 108/114/88
f 122/148/2 124/151/2 125/150/2 123/149/2
f 106/139/15 123/153/15 125/152/15 109/138/15
f 105/154/25 124/157/25 122/156/25 100/155/25
f 109/94/16 125/159/16 124/158/16 105/93/16
f 77/160/89 128/162/89 73/161/89
f 72/163/90 130/165/90 76/164/90
f 99/166/91 127/168/91 97/167/91
f 126/169/92 97/171/92 134/170/92
f 127/172/93 134/174/93 97/173/93
f 75/175/94 82/178/94 133/177/94 87/176/94
f 90/179/95 135/181/95 133/180/95
f 135/182/96 82/184/96 133/183/96
f 74/185/97 76/188/97 153/187/97 138/186/97
f 138/186/98 153/187/98 152/190/98 137/189/98
f 137/189/99 152/190/99 151/48/99 136/45/99
f 78/191/100 88/194/100 156/193/100 142/192/100
f 142/192/101 156/193/101 155/196/101 143/195/101
f 143/195/102 155/196/102 154/44/102 144/41/102
f 85/197/103 83/200/103 145/199/103 148/198/103
f 148/198/104 145/199/104 146/202/104 149/201/104
f 149/201/105 146/202/105 147/28/105 150/25/105
f 157/203/106 78/206/106 142/205/106 162/204/106
f 162/204/107 142/205/107 143/208/107 163/207/107
f 163/207/108 143/208/108 144/24/108 164/21/108
f 75/209/109 79/212/109 147/211/109 141/210/109
f 141/210/110 147/211/110 146/214/110 140/213/110
f 140/213/111 146/214/111 145/20/111 139/17/111
f 70/215/2 85/218/2 148/217/2 136/216/2
f 136/216/2 148/217/2 149/220/2 137/219/2
f 137/219/2 149/220/2 150/8/2 138/5/2
f 153/221/112 76/224/112 130/223/112 131/222/112
f 131/225/113 129/228/113 152/227/113 153/226/113
f 129/229/114 132/232/114 151/231/114 152/230/114
f 132/233/115 128/236/115 77/235/115 151/234/115
f 159/237/116 161/240/116 135/239/116 82/238/116
f 84/241/117 97/242/117 161/240/117 159/237/117
f 140/243/118 163/207/118 164/21/118 141/244/118
f 139/245/119 162/204/119 163/207/119 140/243/119
f 71/246/120 157/203/120 162/204/120 139/245/120
f 80/247/121 84/248/121 159/32/121 158/29/121
f 141/244/122 164/21/122 158/22/122 75/249/122
f 126/250/123 98/253/123 161/252/123 97/251/123
f 98/254/124 161/257/124 135/256/124 90/255/124
f 70/258/125 77/261/125 73/260/125 94/259/125
f 94/262/67 92/265/67 103/264/67 70/263/67
f 95/266/68 71/269/68 102/268/68 93/267/68
f 95/270/3 160/9/3 157/10/3 71/271/3
